# xmcd
# 
# Track frame offsets:
#     150
#     30697
#     65830
#     95292
#     123367
#     150717
#     187647
#     228620
#     262905
#     294190
# 
# Disc length: 4350
# 
# Revision: 1
# Processed by: cddbd v1.5.2PL0 Copyright (c) Steve Scherf et al.
# Submitted via: BonkEnc v1.0.8
# 
DISCID=7d10fc0a
DTITLE=Gary Campbell - Thick and Thin
DYEAR=1996
DGENRE=Contemporary Jazz
TTITLE0=Light Strokes
TTITLE1=Final Decision
TTITLE2=Would-be Blues
TTITLE3=Three-four Fable
TTITLE4=We'll Be Together Again
TTITLE5=Con Alma
TTITLE6=Thick and Thin
TTITLE7=Veils
TTITLE8=You Stepped Out Of A Dream
TTITLE9=Good Bait
EXTD=YEAR: 1996
EXTT0=
EXTT1=
EXTT2=
EXTT3=
EXTT4=
EXTT5=
EXTT6=
EXTT7=
EXTT8=
EXTT9=
PLAYORDER=
